<?xml version="1.0" standalone="yes"?>
<svg xmlns="http://www.w3.org/2000/svg" width="592" height="593">
<path style="fill:#cb783b; stroke:none;" d="M0 0L0 592L445 592L555 592L582 592L592 590L544 591L448 591L142 591L37 591L12 591L3.02778 588.682L2 562L2 491L4 220L36.1157 220.782L95 221L87 225L87 227C99.5803 231.62 113.323 231.793 126 236.71C139.449 241.926 149.276 250.653 159 261C145.066 251.745 133.014 242.62 116 239.615C109.877 238.533 99.6718 238.288 97 245C112.741 249.698 127.225 253.257 141 263.039C160.597 276.957 175.174 297.241 194.83 311.666C204.665 318.883 224.183 335.489 237 332L208.17 307.475L163 265C186.122 281.104 207.377 307.171 237 311C234.303 302.228 219.183 295.181 212 289.884C191.338 274.648 173.807 256.558 154 240.45C147.271 234.977 137.206 225.24 128 226C122.067 219.174 104.246 222 96 222L96 221C111.612 220.099 132.461 217.363 145.674 226.566C154.791 232.915 161.02 243.105 169.325 250.478C182.526 262.198 197.737 271.399 213 280.13C220.975 284.693 233.532 293.366 243 291L219.576 268.258L165 221C176.257 220.21 182.287 227.658 191.003 233.421C208.837 245.212 226.433 262.353 247 269L248 268L232.514 250.039L202 220L206 220C208.791 224.097 213.802 226.451 217.514 229.749C227.195 238.352 241.542 255.606 254 259C248.666 245.31 233.337 231.202 223 221C238.55 222.084 246.893 247.84 263 250L241 221L270 245C269.755 236.535 264.715 227.875 260 221C271.824 222.2 274.902 223.382 283.675 232.83C285.404 234.692 289.193 240.533 292.386 238.673C296.297 236.395 289.913 223.405 289 220L298 222.553L311 234L309 221C312.494 220.861 316.569 220.028 319.576 222.267C324.544 225.966 326.893 233.684 334 231L332 220L349 236L349 221L353 222C355.074 229.288 363.473 236.994 371 238L363 221L368 220C371.934 231.347 380.802 241.434 389 250L390 250C392.865 242.888 383.432 227.814 380 221L381 220L390 221C390.036 231.555 396.874 256.088 409 258L400 220C406.133 224.011 405.159 231.435 406.464 238C408.146 246.468 412.006 255.525 417.554 262.169C421.096 266.411 425.18 270.942 431 270L418.573 234L418.438 221.911L433 220C438.272 241.398 433.335 261.925 445.75 282C449.445 287.975 456.214 297.736 464 297L449.598 263L448 221L462 221C462 276.205 485.623 328.657 488 384C497.252 377.868 494.874 353.692 493.715 344C490.653 318.399 483.746 293.455 480.209 268C478.026 252.286 479.706 236.231 474 221L477 220L477 222C483.746 220.052 490.149 221.371 497 221.215C518.629 220.722 540.403 221.706 562 221.215C566.999 221.101 586.325 217.744 589.146 222.52C593.452 229.811 591 246.648 591 255L591 333L592 333L592 0L0 0z"/>
<path style="fill:#e4953e; stroke:none;" d="M4 3L4 25L102 24.7531L293 24.7531L488 24.7531L589 25L590 3L4 3M147 68C140.531 119.182 183.014 171.462 216.039 206C226.485 216.924 239.993 226.979 249 239L250 239C246.769 230.659 238.789 223.889 233.196 217C221.759 202.912 210.813 188.687 200.152 174C176.57 141.513 161.089 105.899 149 68L147 68M78 69C80.3692 80.7808 94.2715 93.8806 101.856 103C120.977 125.992 139.523 147.389 163 166.2C170.683 172.356 179.318 182.482 189 185C169.619 153.878 142.333 127.883 116.285 102.579C104.972 91.5896 92.1186 76.2255 78 69M185 81C165.046 129.637 201.57 168.272 231.742 203.285C241.921 215.099 253.408 233.216 267 241C265.217 227.594 251.227 212.626 243.371 202C216.797 166.057 176.362 129.881 188 81L185 81M224 83C216.216 120.733 241.202 144.582 263.728 171C279.365 189.338 293.453 209.085 307 229L308 229C307.618 212.665 292.831 194.391 283.207 182C259.133 151.004 226.886 125.679 226 83L224 83M204 88C187.93 130.912 237.299 175.457 261.729 204C270.371 214.097 279.523 229.184 291 236C289.559 226.379 283.922 217.406 279.306 209C269.635 191.39 258.695 173.696 244.83 159.039C238.777 152.641 231.095 148.135 225.76 141C218.74 131.612 213.333 121.211 209.885 110C207.744 103.038 207.379 94.354 204 88M241 90C228.759 131.412 278.881 168.152 301.869 195C309.683 204.127 319.674 223.807 331 228C321.62 203.816 306.145 182.168 288.83 163C280.022 153.249 269.391 145.634 261.478 135C255.166 126.517 250.588 116.927 247.051 107C245.083 101.476 244.42 94.7937 241 90M269 93C264.304 130.156 288.798 150.219 310.561 176C324.361 192.348 336.042 211.093 346 230L347 230C345.939 206.777 327.31 177.421 311.83 161.039C302.997 151.692 292.611 145.292 285.746 134C280.671 125.652 277.101 116.37 274.427 107C273.119 102.414 273.077 95.8682 269 93M298 105C303.674 119.971 316.663 132.145 323.335 147C335.667 174.458 336.908 211.863 364 231C360.658 219.643 352.819 209.411 348.861 198C339.992 172.433 335.319 149.848 319.279 127C313.717 119.077 306.966 109.181 298 105M332 110C339.729 126.267 353.476 138.274 359.1 156C363.349 169.396 362.024 184.225 364.464 198C367.53 215.318 375.228 228.721 385 243L386 243C383.476 228.841 375.559 215.459 372.665 201C370.378 189.573 371.597 177.529 369.676 166C366.014 144.027 352.832 119.91 332 110M361 126C363.71 131.354 369.207 135.166 372.869 140C379.532 148.796 383.685 158.251 386.112 169C391.692 193.71 383.304 234.401 405 253C402.881 240.535 398.406 228.777 397.17 216C394.404 187.423 400.706 159.237 377.999 137.015C373.232 132.349 367.601 127.551 361 126M392 137C398.227 149.503 405.931 158.503 407.714 173C410.563 196.177 403.402 220.298 409.91 243C412.694 252.714 418.063 264.14 428 268C423.836 253.817 416.14 242.331 415.09 227C413.067 197.488 428.657 170.415 404.91 146.039C401.169 142.199 396.898 139.141 392 137M77 145L77 146C120.272 160.075 157.371 180.751 194 207.735C210.267 219.718 224.628 236.958 242 247C235.367 232.772 218.484 220.204 207 209.83C181.651 186.933 155.035 164.54 123 151.604C109.088 145.987 91.9687 141.436 77 145M418 153C425.877 169.578 433.409 182.235 435.714 201C439.155 229.017 428.333 279.766 461 295C455.111 281.333 448.257 269.106 446.289 254C442.417 224.277 454.939 167.31 418 153M91 186C106.375 185.99 121.246 182.971 136 189.338C146.516 193.876 155.067 202.605 164 209.576C180.762 222.656 197.718 235.476 215 247.86C224.198 254.45 233.976 262.818 245 266C236.601 254.077 223.822 244.617 213.004 234.951C191.318 215.573 167.48 192.001 140 181.204C127.682 176.365 99.7444 172.661 91 186M457 196L462.905 217L469.435 272L481.54 323L487.41 363L490 379C496.062 364.634 492.825 345.861 490.438 331C487.267 311.256 482.551 291.769 479.439 272C477.559 260.057 477.818 247.832 475.399 236C473.02 224.363 467.464 202.833 457 196M100 203C104.151 207.255 111.439 207.266 117 209.029C126.044 211.895 135.217 216.122 143 221.57C152.596 228.288 158.654 237.957 167.015 245.911C180.924 259.145 197.301 269.446 214 278.73C222.179 283.277 230.595 288.591 240 290C230.051 275.982 213.046 264.693 200 253.579C169.368 227.48 142.752 199.626 100 203z"/>
<path style="fill:#b35d3b; stroke:none;" d="M4 220C4 311.298 2 402.64 2 494L2 564C2 569.846 -0.684488 584.709 3.02778 589.397C6.62764 593.942 25.479 591 31 591L116 591L464 591L559 591L582 591C584.617 590.999 589.109 591.75 590.972 589.397C592.772 587.125 592 582.693 592 580L592 555L592 460C592 401.307 591 342.659 591 284C591 268.272 592.557 251.619 590.714 236C590.298 232.471 591.304 224.528 588.972 221.796C585.021 217.166 567.07 220.994 561.424 220.994C540.074 220.994 518.646 219.793 497.285 220.958C490.335 221.337 483.737 219.326 477 222L477 220L474 221C478.514 237.061 477.953 252.766 480.209 269C483.558 293.102 489.773 316.837 493.13 341C494.794 352.976 497.333 374.656 488 384C486.854 328.49 462.006 276.272 462 221L448 221C446.796 249.034 448.945 272.402 464 297C456.538 296.26 451.029 288.829 447.05 283C433.098 262.558 439.827 241.589 433 220L418.029 221.828L418.573 235L431 270C417.468 270.004 408.625 248.101 406.465 237C405.241 230.713 406.758 222.981 400 220L409 258C397.518 254.707 390.12 231.847 390 221L381 220L380 221C382.978 229.257 391.692 241.323 390 250L389 250L368 220L363 221L371 238C363.648 236.252 356.149 228.763 353 222L349 221L349 236C342.776 230.431 340.941 221.469 332 220L334 231C327.169 232.894 325.119 225.81 320.255 222.239C316.894 219.772 312.854 220.609 309 221L311 234L289 220C289.484 223.44 295.61 235.689 292.31 237.941C289.367 239.949 285.206 233.611 283.675 231.91C275.334 222.649 271.593 221.527 260 221L270 245L241 221L263 250C248.085 246.465 238.057 220.98 223 221L254 259L232.947 242L206 220L202 220C211.159 239.638 237.914 248.557 248 268L247 269C226.864 259.87 209.14 245.354 191.003 232.852C182.519 227.004 176.18 219.559 165 221C186.985 247.477 221.957 263.484 243 291C228.843 293.134 208.275 277.496 197 270C185.02 262.036 173.216 253.958 162.922 243.816C154.958 235.969 148.959 225.821 138 221.571C127.359 217.444 107.21 219.414 96 221L96 222C105.603 222 119.93 219.853 128 226C137.821 225.715 148.926 236.941 155.96 242.906C173.201 257.527 188.614 273.624 207 286.989C215.89 293.451 231.961 301.137 237 311C217.619 307.229 200.181 294.432 185.09 282.232C178.186 276.652 171.008 268.715 163 265C182.101 292.116 213.373 309.403 237 332C223.344 334.55 204.384 317.942 193.91 310.329C175.054 296.625 161.477 277.346 143 263.756C128.914 253.396 113.636 248.972 97 245C100.982 238.444 110.239 238.634 117 240.004C133.81 243.409 144.231 254.372 159 261C142.079 235.943 113.461 234.018 87 227L87 225L95 221L4 220z"/>
<path style="fill:#e4953e; stroke:none;" d="M94 225L94 227C139.83 227.379 165.423 268.835 200 291.999C210.329 298.919 222.239 307.886 235 309C221.661 295.437 202.933 285.498 188 273.551C166.991 256.744 149.288 232.467 122 225.594C112.516 223.205 103.536 224.59 94 225z"/>
<path style="fill:#cb783b; stroke:none;" d="M482 235C484.826 248.169 491.298 260.87 494.849 274C502.863 303.633 507.104 336.382 503.826 367C502.094 383.184 494.358 395.873 490 411L491 411C511.351 372.192 507.907 327.772 499.551 286C497.032 273.41 491.264 260.685 490 248L491 248C506.146 289.061 524.157 324.563 517.714 370C514.154 395.109 499.528 415.338 492.029 439C487.772 452.431 487.909 465.175 489 479L488 479L483 462L482 462C482.523 468.398 484.223 477.398 490 481C489.991 467.51 488.577 455.25 492.569 442C499.54 418.859 513.637 399.032 518.486 375C524.338 346 518.901 315.806 510.142 288C505.8 274.217 500.104 260.674 493.174 248C490.338 242.813 488.442 236.083 482 235z"/>
<path style="fill:#e4953e; stroke:none;" d="M103 242C105.811 246.387 113.244 246.961 118 248.695C126.465 251.781 134.656 256.408 142 261.59C165.205 277.963 181.687 301.785 206 317.656C214.225 323.025 224.011 329.978 234 331C222.769 317.115 204.583 306.308 191 294.575C162.929 270.326 143.307 242 103 242M488 245L490 248L488 245M243 248L244 249L243 248M490 248C490.545 258.641 495.625 269.577 497.989 280C503.656 304.989 508.275 332.308 505.83 358C504.599 370.941 502.612 383.784 497.935 396C492.599 409.937 484.773 421.901 482.325 437C479.927 451.789 483.379 465.223 488 479L489 479C488.445 466.078 487.791 454.69 491.427 442C497.094 422.227 508.998 404.875 514.703 385C524.56 350.659 518.214 311.638 505.2 279C501.182 268.923 497.546 256 490 248M245 250L246 251L245 250z"/>
<path style="fill:#cb783b; stroke:none;" d="M346 468L346 467C301.298 445.818 272.617 394.205 266.845 346C264.194 323.859 265.23 299.457 281.174 282.015C322.483 236.823 400.148 275.394 437 307.289C447.224 316.137 455.686 325.913 461.89 338C476.016 365.519 467.24 390.437 467 419C471.86 408.89 472 394.048 472 383C472 363.27 469.091 345.133 458.533 328C435.009 289.823 378.618 263.077 335 260.09C327.534 259.578 319.258 260.193 312 262.004C269.067 272.718 259.291 314.314 266.54 353C270.242 372.756 276.905 391.179 286.223 409C298.514 432.505 319.119 460.648 346 468z"/>
<path style="fill:#b35d3b; stroke:none;" d="M159 261L163 265L159 261z"/>
<path style="fill:#e4953e; stroke:none;" d="M471 472C469.1 456.425 463.788 443.235 465.093 427C467.522 396.787 476.617 369.568 463.335 340C457.551 327.124 448.601 316.475 438 307.289C401.241 275.435 324.529 237.637 282.09 280.09C266.834 295.351 264.837 317.756 265.965 338C268.546 384.359 295.684 443.107 339 464.219C381.211 484.793 427.264 465.57 471 472z"/>
<path style="fill:#cb783b; stroke:none;" d="M101 274C117.379 279.68 133.694 282.065 148 292.9C156.444 299.295 161.616 308.35 169.17 315.575C181.591 327.455 197.231 336.538 213 343.207C220.666 346.449 231.624 352.28 240 350C226.813 336.939 205.949 329.265 191 317.765C173.738 304.485 161.681 286.135 141.561 276.6C131.559 271.859 109.929 264.338 101 274z"/>
<path style="fill:#e4953e; stroke:none;" d="M104 273L104 274C158.633 276.497 179.341 346.814 235 348C220 336.834 202.756 329.019 188 317.192C163.027 297.176 141.181 264.148 104 273z"/>
<path style="fill:#cb783b; stroke:none;" d="M114 301C117.368 309.694 125.9 315.592 133 321.196C146.978 332.23 163.017 341.217 180 346.645C190.225 349.913 200.874 350.872 211 354.742C221.744 358.849 232.027 368.816 243 371C224.421 338.859 182.183 339.341 153 324.752C140.607 318.556 127.258 303.64 114 301z"/>
<path style="fill:#e4953e; stroke:none;" d="M117 304L118 305L117 304M119 306L119 307C135.215 321.013 150.876 333.784 171 341.985C184.292 347.402 198.632 348.632 212 353.811C221.143 357.353 229.025 363.235 238 367C219.228 340.901 184.66 340.071 158 328.663C144.657 322.953 132.599 309.703 119 306z"/>
<path style="fill:#cb783b; stroke:none;" d="M370 458L370 457C347.147 443.662 322.329 424.466 323.015 395C323.862 358.597 373.908 306.726 412 320.876C439.662 331.151 464.116 375.829 454.946 405C452.618 412.407 447.217 420.717 440.985 425.387C438.312 427.39 433.827 428.095 431.689 430.585C428.342 434.483 429.739 441.411 425.786 445.985C410.664 463.485 391 461.389 371 458C386.671 469.723 415.285 460.507 426.787 446.999C430.582 442.542 430.071 435.47 433.603 431.699C441.791 422.959 451.545 419.811 456.034 407C465.812 379.094 444.047 334.861 419 321.981C392.128 308.163 363.622 325.802 345.715 346.004C334.718 358.41 324.713 372.115 322.3 389C318.014 419.002 342.59 448.652 370 458z"/>
<path style="fill:#b35d3b; stroke:none;" d="M392 318.515C360.737 324.923 325.495 359.197 323.09 392C320.335 429.585 362.965 467.972 400 460.399C410.336 458.286 422.241 453.432 427.995 443.999C430.346 440.144 429.48 434.822 431.885 431.313C434.714 427.186 441.936 426.101 445.535 421.957C459.436 405.95 457.985 386.956 451.667 368C443.573 343.718 421.841 312.397 392 318.515z"/>
<path style="fill:#cb783b; stroke:none;" d="M591.333 334.667L591.667 335.333L591.333 334.667M121 336L120 337C131.629 357.863 153.415 372.338 177 375.7C189.541 377.488 202.527 375.981 215 378.514C228.974 381.351 240.653 388.928 254 393C236.81 362.185 195.422 371.774 168 364.123C149.458 358.95 137.1 345.262 121 336M591.333 337.667L591.667 338.333L591.333 337.667z"/>
<path style="fill:#e4953e; stroke:none;" d="M123 339L124 340L123 339M125 341C139.327 377.167 184.891 372.08 215 377.321C226.623 379.344 237.221 384.518 248 389C232.186 363 191.222 371.543 167 365.076C150.792 360.749 139.152 349.063 125 341z"/>
<path style="fill:#cb783b; stroke:none;" d="M415 418C433.793 417.998 441.488 401.56 438.385 384C435.226 366.119 421.896 350.282 405 343.352C387.644 336.233 370.128 346.063 359.761 360C343.897 381.327 342.282 418.781 365.004 436.471C376.949 445.77 391.781 443.221 404 435.985C410.838 431.936 417.474 426.634 415 418z"/>
<path style="fill:#e4953e; stroke:none;" d="M413 417C418.104 416.43 423.165 417.659 427.816 414.811C433.794 411.149 435.437 404.368 436.88 398C441.87 375.987 424.661 351.557 404 344.384C386.618 338.35 371.326 347.399 360.67 361C344.182 382.045 344.277 419.565 367 436.443C378 444.613 393.186 441.261 404 434.655C410.999 430.38 416.525 425.498 413 417z"/>
<path style="fill:#cb783b; stroke:none;" d="M135 365C137.05 370.446 140.404 375.25 143.965 379.83C166.146 408.361 197.435 400.916 229 403.09C240.793 403.902 251.716 407.982 263 411C258.28 401.342 241.099 396.461 231 396L231 397L259 407L259 408C250.015 406.149 241.247 402.768 232 402.09C199.937 399.74 159.53 408.192 142 373C148.904 378.461 154.802 384.271 163 387.902C182.382 396.486 209.089 395.827 230 396L230 395C208.966 392.342 186.021 395.703 166 387.546C153.68 382.527 146.58 369.688 135 365z"/>
<path style="fill:#e4953e; stroke:none;" d="M140 370L142 373L140 370M142 373C153.921 408.943 202.469 399.999 231 402.09C240.583 402.793 249.587 406.852 259 408L259 407C231.437 392.497 204.827 398.497 176 391.765C161.878 388.467 154.019 379.666 142 373z"/>
<path style="fill:#cb783b; stroke:none;" d="M148 398C149.505 402.713 152.383 406.258 155.59 409.985C176.791 434.634 196.982 422.266 224 421.039C238.171 420.396 249.445 424.18 263 427L263 426C249.316 420.721 234.672 418.484 220 420.286C208.131 421.744 193.857 427.686 182 425.18C169.4 422.517 159.806 412.585 152 403C160.653 407.816 168.855 413.598 179 414.816C210.835 418.637 252.637 400.253 275 432L264 427L264 428L277 434C274.276 423.527 262.683 417.179 253 414.205C229.63 407.028 204.788 417.099 181 413.7C167.858 411.822 159.357 403.65 148 398z"/>
<path style="fill:#e4953e; stroke:none;" d="M152 403C154.411 407.171 157.471 410.624 161.001 413.91C181.593 433.078 200.901 420.605 225 420.015C243.976 419.55 257.791 424.835 275 432C259.7 399.191 207.146 418.074 180 414.816C169.32 413.533 161.626 406.649 152 403z"/>
<path style="fill:#cb783b; stroke:none;" d="M489 412L488 416L489 416L489 412M487 416L486 421L487 421L487 416z"/>
<path style="fill:#9b4338; stroke:none;" d="M4 418C4 461.006 3 504.062 3 547L3 578C3 580.98 1.92723 586.853 4.60339 588.972C10.127 593.347 29.0263 590 36 590L123 590L460 590L558 590L581 590C583.617 589.999 588.109 590.75 589.972 588.397C591.772 586.125 591 581.693 591 579L591 554C591 521.622 590 489.392 590 457L590 429C590 426.303 590.936 421.117 588.397 419.27C585.806 417.386 580.982 418.553 578 418.526C569.322 418.448 560.669 418.54 552 418.537C541.002 418.533 529.996 418.28 519 418.379C514.962 418.415 508.945 417.471 505.299 419.455C501.017 421.786 498.494 429.754 496.801 434.001C490.488 449.836 488.879 467.188 492 484C480.061 477.486 477.101 453.197 479.375 441C480.749 433.633 484.175 425.377 482 418L470 418L470 422L469 422L469 420L468 420C468 439.85 468.612 456.087 475 475C467.905 475.291 461.182 471.091 454 471.26C415.661 472.16 379.525 483.565 342 467.889C326.118 461.254 313.777 448.994 302.67 436.255C298.278 431.218 294.721 422.827 288.741 419.511C283.69 416.71 273.558 418.276 268 419L268 420L272 420C272.606 422.535 280.165 433.105 276.574 434.498C273.876 435.546 269.299 432.139 267 431.001C260.5 427.782 253.219 425.213 246 424.209C219.565 420.534 194.619 432.223 169 424C176.541 438.842 205.648 441 220 441C254.271 441 283.916 438.217 307 468C295.821 469.261 280.851 457.165 269 455.084C238.362 449.704 204.257 462.127 177.286 441.667C170.737 436.698 162.964 430.33 161 422L165 422L165 421C152.35 414.077 128.294 418.247 114 418.522C77.9716 419.217 39.8658 421.464 4 418M332 418C333.361 428.223 342.189 437.168 349.961 443.24C367.22 456.725 387.424 464.866 409 456.456C416.293 453.613 424.482 448.384 427.772 441C429.25 437.682 428.065 433.311 430.027 430.317C433.483 425.043 440.763 425.044 444 418L417 420C416.488 441.182 381.894 448.552 367.004 438.982C359.481 434.148 356.384 423.502 349.451 419.335C345.223 416.793 336.882 418.604 332 418z"/>
<path style="fill:#cb783b; stroke:none;" d="M466 420L466 454L467 454L466 420M485 421L484 428L485 428L485 421M164 425C178.301 461.914 229.258 449.91 259 452.09C269.831 452.884 279.689 457.18 290 460L290 459C260.973 447.742 233.5 455.6 204 450.385C190.853 448.061 175.428 441.39 169 429C199.216 452.039 234.425 437.578 268 444.515C281.44 447.291 291.478 454.484 301 464L291 460L291 461L304 468C301.583 457.835 289.936 451.192 281 447.181C256.248 436.072 226.298 445.067 200 440.676C186.058 438.348 176.618 429.783 164 425M483 428L482 436L483 436L483 428z"/>
<path style="fill:#e4953e; stroke:none;" d="M169 429C172.178 438.347 183.146 444.306 192 447.468C214.466 455.492 238.939 447.846 262 451.439C276.016 453.623 287.602 460.936 301 464C281.53 436.378 246.471 445.207 218 443.961C199.804 443.164 184.72 437.717 169 429z"/>
<path style="fill:#b35d3b; stroke:none;" d="M401 437L401 438L408 434L401 437M480 437L480 460L481 460L480 437z"/>
<path style="fill:#cb783b; stroke:none;" d="M481 437L481 461L482 461L481 437z"/>
<path style="fill:#b35d3b; stroke:none;" d="M397 439L397 440L401 439L397 439M176 440C180.199 446.92 190.505 450.039 198 451.869C218.881 456.967 240.819 452.12 262 454.17C273.386 455.272 283.047 461.108 294 463L294 462C263.859 447.681 235.266 456.745 204 451.675C193.272 449.935 185.642 444.055 176 440M207 441L207 442L270 443L251 441L207 441M270 443L270 444L277 445L270 443M277 445L277 446L289 451L277 445M289 451L289 452L297 457L289 451z"/>
<path style="fill:#cb783b; stroke:none;" d="M467 455L468 462L469 462L467 455z"/>
<path style="fill:#b35d3b; stroke:none;" d="M297 457L301 461L297 457M198 458C201.319 469.726 223.897 479.112 235 481L235 480C223.859 476.369 210.853 470.978 203 462L229 470L198 458M301 461L304 468L301 467L301 468L307 468L301 461M481 461L482 470L483 470L481 461z"/>
<path style="fill:#cb783b; stroke:none;" d="M203 462C207.459 469.701 219.028 474.293 227 477.548C241.573 483.498 254.832 483.423 270 485.286C282.847 486.864 296.104 490.732 309 491L309 490C296.322 488.991 283.668 485.801 271 484.285C250.166 481.794 226.524 481.636 210 466C229.782 475.199 252.848 472.909 274 475.174C286.816 476.546 299.222 482.416 312 483L312 482L277 474.428L236 471.561L203 462z"/>
<path style="fill:#b35d3b; stroke:none;" d="M294 463L294 464L301 467L301 466L294 463z"/>
<path style="fill:#cb783b; stroke:none;" d="M469 463L471 472C452.553 467.783 434.537 471.537 416 473L416 474L473 474L469 463z"/>
<path style="fill:#b35d3b; stroke:none;" d="M470 463L471 468L472 468L470 463M337 465L337 466C347.949 471.493 361.767 474.992 374 475L374 474L337 465z"/>
<path style="fill:#e4953e; stroke:none;" d="M210 466C217.564 476.812 238.829 480.922 251 483.196C263.083 485.454 275.768 484.468 288 486.615C318.962 492.05 352.826 502.781 384 494L384 493C365.018 490.601 345.859 489.87 327 486.536C309.827 483.501 293.259 477.759 276 475.3C253.432 472.084 231.964 473.416 210 466z"/>
<path style="fill:#cb783b; stroke:none;" d="M347 468L347 469L353 470L347 468z"/>
<path style="fill:#b35d3b; stroke:none;" d="M472 468L473 474L457 471L457 472L475 475L472 468M230 470L230 471L247 472L230 470z"/>
<path style="fill:#cb783b; stroke:none;" d="M354 470L354 471L362 472L354 470z"/>
<path style="fill:#b35d3b; stroke:none;" d="M483 470L484 475L485 475L483 470M432 472L432 473L452 472L432 472M252 472L252 473L277 474L252 472z"/>
<path style="fill:#cb783b; stroke:none;" d="M362 472L362 473L373 474L362 472z"/>
<path style="fill:#b35d3b; stroke:none;" d="M414 474L414 475L432 474L414 474M277 474L277 475L288 476L277 474z"/>
<path style="fill:#cb783b; stroke:none;" d="M374 474L374 475L414 475C403.488 470.589 385.434 474 374 474z"/>
<path style="fill:#b35d3b; stroke:none;" d="M375 475L375 476L413 476C402.964 471.789 385.911 475 375 475M485 475L487 479L485 475M289 476L289 477L296 478L289 476M297 478L297 479L303 480L297 478M304 480L304 481L312 482L304 480M388 504L388 505C399.555 503.01 408.71 495.363 419 490.36C438.597 480.832 462.935 477.439 482 490C472.15 491.568 462.019 489.332 452 491.372C437.189 494.387 422.881 503.474 410 511L410 512L453 492.749L484 491L484 489C448.795 466.591 420.655 492.953 388 504M236 481L236 482L242 483L242 482L236 481M312 482L312 483L332 486L312 482z"/>
<path style="fill:#cb783b; stroke:none;" d="M442 482L442 483L471 485C462.901 480.053 451.12 482 442 482z"/>
<path style="fill:#b35d3b; stroke:none;" d="M242 483L242 484L252 485L242 483z"/>
<path style="fill:#cb783b; stroke:none;" d="M313 483L313 484L322 485L313 483M428 486L428 487L441 484L428 486z"/>
<path style="fill:#e4953e; stroke:none;" d="M262 499L262 500C299.786 522.054 348.69 532.349 391 518.806C410.174 512.668 426.062 499.323 445 492.695C455.597 488.986 465.933 489 477 489C467.83 476.548 437.756 483.601 426 487.861C408.123 494.338 394.196 505.636 375 509.486C335.386 517.431 300.447 504.203 262 499z"/>
<path style="fill:#b35d3b; stroke:none;" d="M254 485L254 486L278 487L254 485z"/>
<path style="fill:#cb783b; stroke:none;" d="M322 485L322 486L333 487L322 485M472 485L472 486L477 487L477 486L472 485z"/>
<path style="fill:#b35d3b; stroke:none;" d="M333 486L333 487C345.689 487.105 358.311 490.405 371 490.961C376.473 491.2 382.849 489.606 386 495L340 496.714L279 487L279 488C306.753 489.192 333.998 501.129 362 499.896C369.478 499.566 386.377 499.329 389 491C372.298 487.024 350.182 486 333 486z"/>
<path style="fill:#cb783b; stroke:none;" d="M335 487L335 488L347 489L335 487M425.667 487.333L426.333 487.667L425.667 487.333M477 487L452 490L452 491L482 490L477 487M423.667 488.333L424.333 488.667L423.667 488.333M351 489L351 490L367 491L351 489M420.667 489.333L421.333 489.667L420.667 489.333M418.667 490.333L419.333 490.667L418.667 490.333z"/>
<path style="fill:#b35d3b; stroke:none;" d="M247 491C250.375 499.932 270.086 508.072 279 510L279 509L253 496L253 495L268 499L268 498L247 491z"/>
<path style="fill:#cb783b; stroke:none;" d="M310 491L310 492L320 493L310 491M368 491L368 492L384 493L384 494L382 494L382 495L386 495C383.811 488.774 373.453 491 368 491M416.667 491.333L417.333 491.667L416.667 491.333M445 492L445 493L451 492L445 492M415 492L416 493L415 492M321 493L321 494L332 495L321 493M411 494L411 495L415 494L411 494M440 494L440 495L445 494L440 494M253 495L253 496L263 501L265 499L253 495M332 495L332 496L345 497L332 495M374 496L374 497L382 496L374 496M408 497L411 495L408 497M436 496L436 497L440 496L436 496M348 497L348 498L372 498L348 497M406.667 497.333L407.333 497.667L406.667 497.333M432 499L435 497L432 499z"/>
<path style="fill:#e4953e; stroke:none;" d="M259.667 498.333L260.333 498.667L259.667 498.333z"/>
<path style="fill:#cb783b; stroke:none;" d="M405 498L406 499L405 498M265 499L265 500L305 508L265 499z"/>
<path style="fill:#b35d3b; stroke:none;" d="M269 499L269 500L276 501L269 499z"/>
<path style="fill:#cb783b; stroke:none;" d="M401 500L401 501L405 500L401 500M428 501L431 499L428 501M263.667 501.333L264.333 501.667L263.667 501.333z"/>
<path style="fill:#b35d3b; stroke:none;" d="M276 501L276 502L284 503L276 501z"/>
<path style="fill:#cb783b; stroke:none;" d="M398 501L398 502L401 502L398 501M424 502L424 503L428 502L424 502M265.667 502.333L266.333 502.667L265.667 502.333M393 503L393 504L398 503L393 503M267.667 503.333L268.333 503.667L267.667 503.333z"/>
<path style="fill:#b35d3b; stroke:none;" d="M285 503L285 504L293 505L285 503z"/>
<path style="fill:#cb783b; stroke:none;" d="M422.667 503.333L423.333 503.667L422.667 503.333M269.667 504.333L270.333 504.667L269.667 504.333M391.667 504.333L392.333 504.667L391.667 504.333M421 504L422 505L421 504M271.667 505.333L272.333 505.667L271.667 505.333z"/>
<path style="fill:#b35d3b; stroke:none;" d="M294 505L294 506L303 507L294 505M381 506L381 507L387 506L381 506z"/>
<path style="fill:#cb783b; stroke:none;" d="M387 505L387 506L391 506L387 505M417 507L420 505L417 507M273.667 506.333L274.333 506.667L273.667 506.333M368 509L368 510L387 507L368 509M275 507L275 508L279 509L279 508L275 507z"/>
<path style="fill:#b35d3b; stroke:none;" d="M305 507L305 508L316 509L305 507M371 508L371 509L379 508L371 508z"/>
<path style="fill:#cb783b; stroke:none;" d="M415.667 507.333L416.333 507.667L415.667 507.333M306 508L306 509L320 510L306 508M413.667 508.333L414.333 508.667L413.667 508.333M279 509L279 510L320 522L320 521L279 509z"/>
<path style="fill:#b35d3b; stroke:none;" d="M320 509L320 510L368 510C355.586 504.791 333.526 509 320 509z"/>
<path style="fill:#cb783b; stroke:none;" d="M411.667 509.333L412.333 509.667L411.667 509.333z"/>
<path style="fill:#b35d3b; stroke:none;" d="M280 510L280 511L284 512L284 511L280 510z"/>
<path style="fill:#cb783b; stroke:none;" d="M322 510L322 511L366 511L351 510.996L322 510M410 510L411 511L410 510M371 523L371 524C384.915 523.883 397.368 516.97 410 512L396 516.572L371 523z"/>
<path style="fill:#b35d3b; stroke:none;" d="M285 512L285 513L289 514L289 513L285 512M408 512L409 513L408 512M406.667 513.333L407.333 513.667L406.667 513.333M289 514L289 515L294 516L294 515L289 514M402 515L402 516L406 515L402 515M295 516L295 517L300 518L300 517L295 516M397 517L397 518L401 517L397 517M302 518L302 519L307 520L307 519L302 518M392 519L392 520L396 519L392 519M308 520L308 521L315 522L308 520M386 521L386 522L391 521L386 521M315 522L315 523L324 524L315 522z"/>
<path style="fill:#cb783b; stroke:none;" d="M321 522L321 523L332 524L321 522z"/>
<path style="fill:#b35d3b; stroke:none;" d="M378 523L378 524L385 523L378 523M325 524L325 525L339 526L325 524z"/>
<path style="fill:#cb783b; stroke:none;" d="M333 524L333 525L370 525L357 524.985L333 524z"/>
<path style="fill:#b35d3b; stroke:none;" d="M365 525L365 526L377 525L365 525M340 526L340 527L363 527L340 526z"/>
<path style="fill:#07090b; stroke:none;" d="M0 592L0 593L592 593C578.879 587.494 555.3 592 541 592L420 592L0 592z"/>
</svg>
